# AST/ASF file generated using VICON BodyLanguage
# -----------------------------------------------
:version 1.10
:name VICON
:units
  mass 1.0
  length 0.45
  angle deg
:documentation
   .ast/.asf automatically generated from VICON data using
   VICON BodyBuilder and BodyLanguage model FoxedUp or BRILLIANT.MOD
:root
   order TX TY TZ RX RY RZ
   axis XYZ
   position 0 0 0  
   orientation 0 0 0 
:bonedata
  begin
     id 1 
     name lhipjoint
     direction 0.558404 -0.748506 0.357664 
     length 2.4234 
     axis 0 0 0  XYZ
  end
  begin
     id 2 
     name lfemur
     direction 0.34202 -0.939693 0  
     length 7.14567  
     axis 0 0 20  XYZ
    dof rx ry rz
    limits (-160.0 20.0)
           (-70.0 70.0)
           (-60.0 70.0)
  end
  begin
     id 3 
     name ltibia
     direction 0.34202 -0.939693 0   
     length 8.13956   
     axis 0 0 20   XYZ
    dof rx
    limits (-10.0 170.0)
  end
  begin
     id 4 
     name lfoot
     direction 0.0791314 -0.217412 0.972867   
     length 2.00134   
     axis -90 7.62852e-016 20   XYZ
    dof rx rz
    limits (-45.0 90.0)
           (-70.0 20.0)
  end
  begin
     id 5 
     name ltoes
     direction 1.53547e-011 -4.21922e-011 1   
     length 1.00735   
     axis -90 7.62852e-016 20   XYZ
    dof rx
    limits (-90.0 20.0)
  end
  begin
     id 6 
     name rhipjoint
     direction -0.496392 -0.78327 0.374276   
     length 2.31584  
     axis 0 0 0  XYZ 
  end
  begin
     id 7 
     name rfemur
     direction -0.34202 -0.939693 0   
     length 7.47417   
     axis 0 0 -20   XYZ
    dof rx ry rz
    limits (-160.0 20.0)
           (-70.0 70.0)
           (-70.0 60.0)
  end
  begin
     id 8 
     name rtibia
     direction -0.34202 -0.939693 0   
     length 7.69071   
     axis 0 0 -20   XYZ
    dof rx
    limits (-10.0 170.0)
 end
 begin
     id 9 
     name rfoot
     direction -0.103069 -0.28318 0.953512   
     length 2.16135  
     axis -90 -7.62852e-016 -20   XYZ
    dof rx rz
    limits (-45.0 90.0)
           (-20.0 70.0)
  end
  begin
     id 10 
     name rtoes
     direction -1.53581e-011 -4.21904e-011 1   
     length 1.07867   
     axis -90 -7.62852e-016 -20   XYZ
    dof rx
    limits (-90.0 20.0)
  end
  begin
     id 11 
     name lowerback
     direction -0.0258961 0.994776 -0.0987407   
     length 2.19412   
     axis 0 0 0   XYZ
    dof rx ry rz
    limits (-20.0 45.0)
           (-30.0 30.0)
           (-30.0 30.0)
  end
  begin
     id 12 
     name upperback
     direction 0.0402454 0.999185 0.00320666   
     length 2.18445   
     axis 0 0 0   XYZ
    dof rx ry rz
    limits (-20.0 45.0)
           (-30.0 30.0)
           (-30.0 30.0)
  end
  begin
     id 13 
     name thorax
     direction 0.0519376 0.997415 0.0496558   
     length 2.21487   
     axis 0 0 0   XYZ
    dof rx ry rz
    limits (-20.0 45.0)
           (-30.0 30.0)
           (-30.0 30.0)
  end
  begin
     id 14 
     name lowerneck
     direction -0.0921276 0.983211 0.157506   
     length 1.61201   
     axis 0 0 0   XYZ
    dof rx ry rz
    limits (-20.0 45.0)
           (-30.0 30.0)
           (-30.0 30.0)
  end
  begin
     id 15 
     name upperneck
     direction 0.0820814 0.98162 -0.172292   
     length 1.65275   
     axis 0 0 0   XYZ
    dof rx ry rz
    limits (-20.0 45.0)
           (-30.0 30.0)
           (-30.0 30.0)
  end
  begin
     id 16
     name head
     direction 0.0336554 0.996413 -0.0776455  
     length 1.66415  
     axis 0 0 0   XYZ
    dof rx ry rz
    limits (-20.0 45.0)
           (-30.0 30.0)
           (-30.0 30.0)
  end
  begin
     id 17 
     name lclavicle
     direction 0.94696 0.284418 -0.149576  
     length 3.41447  
     axis 0 0 0   XYZ
    dof ry rz
    limits (-20.0 10.0)
           (0.0 20.0)
  end
  begin
     id 18 
     name lhumerus
     direction 1 -0.000130264 -9.81312e-005   
     length 5.19964   
     axis 180 -30 -90   XYZ
    dof rx ry rz
    limits (-60.0 90.0)
           (-90.0 90.0)
           (-90.0 90.0)
  end
  begin
     id 19
     name lradius
     direction 1 -4.48961e-011 1.43854e-026   
     length 3.32189   
     axis 180 -30 -90   XYZ
    dof rx
    limits (-10.0 170.0)
  end
  begin
     id 20
     name lwrist
     direction 1 -4.48958e-011 3.1502e-026   
     length 1.66095   
     axis -1.97692e-014 90 90   XYZ
    dof ry
    limits (-180.0 0.0)
 end
  begin
     id 21 
     name lhand
     direction 1 -4.48927e-011 6.3004e-026   
     length 0.645616   
     axis -4.02019e-014 90 90   XYZ
    dof rx rz
    limits (-90.0 90.0)
           (-45.0 45.0)
  end
  begin
     id 22 
     name lfingers
     direction 1 -4.4904e-011 1.26008e-025   
     length 0.520512   
     axis -8.04039e-014 90 90   XYZ
    dof rx
    limits (0.0 90.0)
  end
  begin
     id 23
     name lthumb
     direction 0.707107 -6.34947e-011 0.707107   
     length 0.747354   
     axis -90 45 2.85299e-015   XYZ
    dof rx rz
    limits (-45.0 45.0)
           (-45.0 45.0)
  end
  begin
     id 24 
     name rclavicle
     direction -0.909391 0.383475 -0.161107   
     length 3.25176  
     axis 0 0 0   XYZ 
    dof ry rz
    limits (-10.0 20.0)
           (-20.0 0.0)
  end
  begin
     id 25 
     name rhumerus
     direction -1 -4.48965e-011 -1.81384e-027  
     length 5.6595   
     axis 180 30 90   XYZ
    dof rx ry rz
    limits (-90.0 60.0)
           (-90.0 90.0)
           (-90.0 90.0)
  end
  begin
     id 26 
     name rradius
     direction -1 -4.48996e-011 -8.09397e-027   
     length 3.37604   
     axis 180 30 90   XYZ
    dof rx
    limits (-10.0 170.0)
  end
  begin
     id 27 
     name rwrist
     direction -1 -4.48927e-011 -1.56669e-026   
     length 1.68802   
     axis 1.21142e-014 -90 -90   XYZ
    dof ry
    limits (-180.0 0.0)
  end
  begin
     id 28
     name rhand
     direction -1 -4.48912e-011 -3.13339e-026   
     length 0.824702   
     axis 1.99937e-014 -90 -90   XYZ
    dof rx rz
    limits (-90.0 90.0)
           (-45.0 45.0)
  end
  begin
     id 29
     name rfingers
     direction -1 -4.49011e-011 -6.26677e-026   
     length 0.664896   
     axis 3.99874e-014 -90 -90   XYZ
    dof rx
    limits (0.0 90.0)
  end
  begin
     id 30
     name rthumb
     direction -0.707107 -6.34931e-011 0.707107   
     length 0.954662   
     axis -90 -45 -2.85299e-015   XYZ
    dof rx rz
    limits (-45.0 45.0)
           (-45.0 45.0)
  end
:hierarchy
  begin
    root lhipjoint rhipjoint lowerback
    lhipjoint lfemur
    lfemur ltibia
    ltibia lfoot
    lfoot ltoes
    rhipjoint rfemur
    rfemur rtibia
    rtibia rfoot
    rfoot rtoes
    lowerback upperback
    upperback thorax
    thorax lowerneck lclavicle rclavicle
    lowerneck upperneck
    upperneck head
    lclavicle lhumerus
    lhumerus lradius
    lradius lwrist
    lwrist lhand lthumb
    lhand lfingers
    rclavicle rhumerus
    rhumerus rradius
    rradius rwrist
    rwrist rhand rthumb
    rhand rfingers
  end

#!OML:ASF F:\VICON\USERDATA\INSTALL\rory3\rory3.ASF
:FULLY-SPECIFIED
:DEGREES
36
root 11.9164 17.8118 -44.9707 3.21841 -11.031 -4.05907
lowerback 7.2761 2.81087 0.379558
upperback 4.49171 3.74913 2.92772
thorax 0.392533 1.84159 2.54409
lowerneck -9.32696 1.59976 -13.4236
upperneck 38.4523 4.75845 2.86918
head 14.5211 0.501681 4.24676
rclavicle -4.37326e-015 3.97569e-016
rhumerus -28.2924 -16.5848 -67.1422
rradius 39.9213
rwrist -20.52
rhand -13.7042 16.1036
rfingers 7.12502
rthumb 12.4143 -13.5078
lclavicle -4.37326e-015 3.97569e-016
lhumerus -41.4819 37.1719 64.6348
lradius 23.5739
lwrist -14.6059
lhand -6.21181 32.7536
lfingers 7.12502
lthumb 19.6287 61.7827
rfemur -16.8292 -0.0854584 24.363
rtibia 39.6631
rfoot -21.8716 -7.00927
rtoes 23.3776
lfemur -27.1736 -8.63606 -8.14403
ltibia 44.0619
lfoot -13.9575 0.565134
ltoes -1.70811
37
root 11.9417 17.8178 -44.9013 3.08663 -11.6695 -4.03046
lowerback 7.24455 2.91658 0.41853
upperback 4.41659 3.89303 2.93178
thorax 0.328523 1.91473 2.51513
lowerneck -9.32544 1.43184 -13.2667
upperneck 37.9293 4.57682 2.47725
head 14.3153 0.424399 4.01086
rclavicle -2.15681e-014 3.18055e-015
rhumerus -28.3389 -16.2219 -67.0943
rradius 40.4096
rwrist -20.868
rhand -13.6527 16.0218
rfingers 7.12502
rthumb 12.4639 -13.5865
lclavicle -2.15681e-014 3.18055e-015
lhumerus -42.2671 37.8445 64.022
lradius 22.8253
lwrist -15.6331
lhand -6.17312 32.4513
lfingers 7.12502
lthumb 19.6659 61.4765
rfemur -16.4706 0.161493 24.1409
rtibia 39.6503
rfoot -22.1596 -6.68908
rtoes 23.4148
lfemur -26.4071 -8.6565 -8.3954
ltibia 43.4766
lfoot -14.449 1.31561
ltoes -2.58414
38
root 11.9541 17.8115 -44.882 3.27286 -11.1824 -3.89093
lowerback 6.76401 2.69289 0.142057
upperback 4.57346 3.56906 3.08233
thorax 0.743616 1.74328 2.87723
lowerneck -9.59605 1.11807 -13.7258
upperneck 37.397 4.16767 2.66883
head 14.1548 0.238348 4.10176
rclavicle 6.36111e-015 6.75868e-015
rhumerus -27.61 -16.0033 -67.1367
rradius 40.8625
rwrist -21.1975
rhand -13.8379 16.0568
rfingers 7.12502
rthumb 12.2854 -13.5623
lclavicle 6.36111e-015 6.75868e-015
lhumerus -42.3632 38.9616 63.976
lradius 22.1916
lwrist -16.7155
lhand -6.0924 32.079
lfingers 7.12502
lthumb 19.7435 61.0963
rfemur -16.6253 0.0731384 23.9943
rtibia 39.6714
rfoot -22.0574 -7.07591
rtoes 23.0914
lfemur -26.5582 -8.70319 -8.53879
ltibia 43.0271
lfoot -14.4572 0.9629
ltoes -2.16734
39
root 11.9682 17.8047 -44.8601 3.47021 -10.8108 -3.73129
lowerback 7.04725 2.51521 -0.00116895
upperback 4.0927 3.34429 3.03599
thorax 0.095695 1.63652 2.896
lowerneck -9.3732 0.830642 -14.0003
upperneck 37.2828 3.5968 3.11105
head 14.0884 0.0166974 4.24703
rclavicle -2.72335e-014 -1.07344e-014
rhumerus -27.9109 -15.6884 -67.1625
rradius 41.2619
rwrist -21.2292
rhand -14.0532 16.2876
rfingers 7.12502
rthumb 12.0778 -13.3438
lclavicle -2.72335e-014 -1.07344e-014
lhumerus -43.3947 39.2541 63.157
lradius 21.6286
lwrist -17.6727
lhand -5.78276 32.0832
lfingers 7.12502
lthumb 20.0412 61.0696
rfemur -16.8164 0.0151455 23.8081
rtibia 39.6959
rfoot -22.2896 -7.35485
rtoes 23.7885
lfemur -26.4887 -8.3897 -8.82176
ltibia 42.7345
lfoot -14.583 0.753411
ltoes -3.7313
40
root 11.9993 17.8085 -44.7887 3.2557 -11.5862 -3.6518
lowerback 7.0023 2.71547 0.142899
upperback 4.03446 3.61827 2.89769
thorax 0.0638671 1.77739 2.65297
lowerneck -9.26846 0.517606 -14.0164
upperneck 36.9278 3.05017 3.24194
head 13.9542 -0.186362 4.21633
rclavicle 2.29596e-014 3.10104e-014
rhumerus -28.0149 -15.6706 -67.2188
rradius 41.567
rwrist -21.2168
rhand -14.0463 16.292
rfingers 7.12502
rthumb 12.0844 -13.3391
lclavicle 2.29596e-014 3.10104e-014
lhumerus -44.1036 39.7548 62.3519
lradius 20.8727
lwrist -18.9205
lhand -5.51937 31.9684
lfingers 7.12502
lthumb 20.2943 60.9281
rfemur -16.4283 0.361606 23.4913
rtibia 39.7332
rfoot -22.2991 -6.98536
rtoes 23.1628
lfemur -25.4707 -8.08888 -9.25867
ltibia 42.4769
lfoot -15.2764 1.57447
ltoes -4.8603
41
root 12.0255 17.8135 -44.7317 3.20592 -12.1639 -3.53313
lowerback 6.77127 2.85176 0.160372
upperback 4.16325 3.7922 2.79752
thorax 0.324323 1.86342 2.54389
lowerneck -9.73934 0.148059 -14.2221
upperneck 36.5006 2.55573 3.42038
head 13.9114 -0.385647 4.25429
rclavicle 1.50082e-014 2.66371e-014
rhumerus -27.6217 -15.8376 -67.3682
rradius 41.8414
rwrist -21.2449
rhand -13.769 16.3899
rfingers 7.12502
rthumb 12.3519 -13.2252
lclavicle 1.50082e-014 2.66371e-014
lhumerus -44.309 40.5152 61.9112
lradius 20.2325
lwrist -20.0347
lhand -5.2835 31.5618
lfingers 7.12502
lthumb 20.521 60.4972
rfemur -16.2743 0.67373 23.1832
rtibia 39.7885
rfoot -22.5033 -6.71668
rtoes 23.141
lfemur -24.7604 -7.69774 -9.66748
ltibia 42.2534
lfoot -16.0103 2.19147
ltoes -5.85259
42
root 12.0467 17.8137 -44.6881 3.23117 -12.2869 -3.2754
lowerback 6.6061 2.77708 -0.0847653
upperback 4.14958 3.67817 2.75395
thorax 0.394056 1.80262 2.65153
lowerneck -10.093 -0.156916 -14.591
upperneck 36.1332 2.15319 3.67191
head 13.8614 -0.560741 4.36023
rclavicle 3.44891e-014 5.56597e-015
rhumerus -27.3012 -15.6926 -67.52
rradius 42.1089
rwrist -21.1715
rhand -13.588 16.7352
rfingers 7.12502
rthumb 12.5264 -12.8693
lclavicle 3.44891e-014 5.56597e-015
lhumerus -44.9158 41.4085 61.2169
lradius 19.7462
lwrist -21.1565
lhand -4.97948 31.0433
lfingers 7.12502
lthumb 20.8131 59.947
rfemur -16.2491 0.729013 22.8048
rtibia 39.8042
rfoot -22.5475 -6.79897
rtoes 22.9516
lfemur -24.299 -7.32324 -10.1492
ltibia 41.9643
lfoot -16.4815 2.33967
ltoes -5.52394
43
root 12.0609 17.8118 -44.6652 3.51461 -11.6789 -3.02228
lowerback 6.46356 2.46349 -0.42035
upperback 3.87203 3.25066 2.77341
thorax 0.18722 1.58745 2.88571
lowerneck -10.4383 -0.363324 -14.5286
upperneck 35.9524 1.92161 3.56279
head 13.8876 -0.661176 4.27257
rclavicle -4.07509e-015 -1.15295e-014
rhumerus -27.2625 -15.2674 -67.6426
rradius 42.5006
rwrist -21.1923
rhand -13.7885 16.7141
rfingers 7.12502
rthumb 12.3331 -12.9022
lclavicle -4.07509e-015 -1.15295e-014
lhumerus -45.6755 41.7751 60.7906
lradius 19.7236
lwrist -21.7585
lhand -4.56967 31.0833
lfingers 7.12502
lthumb 21.2068 59.9433
rfemur -16.5125 0.48921 22.5368
rtibia 39.8221
rfoot -22.6177 -7.18448
rtoes 23.3637
lfemur -24.4551 -7.20954 -10.4856
ltibia 41.6306
lfoot -16.7122 1.99983
ltoes -5.41787
44
root 12.076 17.8127 -44.6327 3.46772 -12.2363 -3.05187
lowerback 6.732 2.57871 -0.597295
upperback 3.59289 3.4033 2.83329
thorax -0.271049 1.66703 3.01548
lowerneck -9.58672 -0.559063 -14.9189
upperneck 35.0558 1.45822 3.78463
head 13.3475 -0.835123 4.31885
rclavicle 1.72943e-014 1.59028e-015
rhumerus -27.5791 -14.7859 -67.6628
rradius 42.9637
rwrist -21.4271
rhand -13.7416 16.5874
rfingers 7.12502
rthumb 12.3782 -13.0262
lclavicle 1.72943e-014 1.59028e-015
lhumerus -46.5068 41.6723 60.5104
lradius 19.7938
lwrist -22.1201
lhand -4.32362 31.1729
lfingers 7.12502
lthumb 21.4432 60.0061
rfemur -16.3454 1.00208 22.4636
rtibia 39.7696
rfoot -22.6481 -7.33937
rtoes 21.6578
lfemur -23.8951 -6.66173 -10.6493
ltibia 41.2605
lfoot -17.0267 2.19479
ltoes -5.39789
45
root 12.1037 17.82 -44.5741 3.47907 -12.403 -3.01869
lowerback 6.46364 2.53256 -0.503373
upperback 3.38884 3.35044 2.80168
thorax -0.322878 1.64449 2.9402
lowerneck -8.71136 -0.70365 -15.0085
upperneck 34.2181 1.05267 3.84565
head 12.8396 -0.972594 4.2627
rclavicle -1.91827e-014 3.97569e-016
rhumerus -27.8567 -14.5253 -67.7226
rradius 43.3191
rwrist -21.5232
rhand -13.5943 16.6599
rfingers 7.12502
rthumb 12.5203 -12.945
lclavicle -1.91827e-014 3.97569e-016
lhumerus -47.5029 42.3511 59.3246
lradius 19.0087
lwrist -23.6325
lhand -4.49506 30.6246
lfingers 7.12502
lthumb 21.2785 59.4766
rfemur -16.1113 1.10768 22.2819
rtibia 39.6327
rfoot -22.7254 -7.41153
rtoes 20.1466
lfemur -23.4851 -6.76872 -10.8966
ltibia 40.8833
lfoot -17.2196 2.67372
ltoes -5.38747
46
root 12.1339 17.8299 -44.5149 3.42381 -12.7545 -2.91602
lowerback 5.92001 2.60335 -0.38393
upperback 3.48884 3.44323 2.6666
thorax 0.0912109 1.68965 2.75601
lowerneck -8.32576 -1.01973 -14.8733
upperneck 33.4202 0.432888 3.95473
head 12.4848 -1.17714 4.17401
rclavicle 4.67144e-015 -7.95139e-016
rhumerus -27.771 -14.8399 -67.9067
rradius 43.6064
rwrist -21.3673
rhand -13.7492 16.6818
rfingers 7.12502
rthumb 12.3709 -12.9322
lclavicle 4.67144e-015 -7.95139e-016
lhumerus -47.8199 43.1675 58.3974
lradius 18.16
lwrist -25.1658
lhand -4.51194 30.4691
lfingers 7.12502
lthumb 21.2623 59.3229
rfemur -15.7961 1.30918 22.0032
rtibia 39.4276
rfoot -22.7017 -7.3713
rtoes 19.085
lfemur -23.0255 -6.72594 -11.2535
ltibia 40.5454
lfoot -17.3189 3.29885
ltoes -7.01888
47
root 12.1603 17.8398 -44.4646 3.39001 -12.9918 -2.94668
lowerback 6.53913 2.60091 -0.46818
upperback 3.1585 3.44927 2.78349
thorax -0.6045 1.69842 2.88421
lowerneck -8.97701 -1.38572 -14.9736
upperneck 33.4478 0.03767 3.94919
head 12.6845 -1.36902 4.14658
rclavicle 1.69961e-014 -2.5842e-014
rhumerus -27.9579 -14.7304 -67.8344
rradius 43.8686
rwrist -21.3056
rhand -13.5067 16.7892
rfingers 7.12502
rthumb 12.6048 -12.8105
lclavicle 1.69961e-014 -2.5842e-014
lhumerus -48.5136 43.3157 57.9967
lradius 17.9693
lwrist -25.5008
lhand -4.14997 30.8103
lfingers 7.12502
lthumb 21.6099 59.6245
rfemur -15.4842 1.55593 21.9124
rtibia 39.1931
rfoot -22.63 -7.48059
rtoes 18.8571
lfemur -22.6365 -6.37614 -11.4201
ltibia 40.2723
lfoot -17.3403 3.4591
ltoes -8.27081
